PathFileType	4	(X/Y/Z)	Kaydara																																																																																																																									
DataRate	CameraRate	NumFrames	NumMarkers	Units	OrigDataRate	OrigDataStartFrame	OrigNumFrames																																																																																																																					
30	30	4	41	mm	30	174	198																																																																																																																					
Frame#	Time	NABA_LFHD			NABA_RFHD			NABA_LBHD			NABA_RBHD			NABA_LFTShould			NABA_RFTShould			NABA_LRRShould			NABA_RRRShould			NABA_T10			NABA_STRN			NABA_TRUN			NABA_LSHO			NABA_LUPA			NABA_LELB			NABA_LFRM			NABA_LWRA			NABA_LWRB			NABA_LFIN			NABA_RSHO			NABA_RUPA			NABA_RELB			NABA_RFRM			NABA_RWRA			NABA_RWRB			NABA_RFIN			NABA_LFWT			NABA_RFWT			NABA_LBWT			NABA_RBWT			NABA_LTHI			NABA_LKNE			NABA_LSHN			NABA_LANK			NABA_LHEE			NABA_LTOE			NABA_RTHI			NABA_RKNE			NABA_RSHN			NABA_RANK			NABA_RHEE			NABA_RTOE		
		X1	Y1	Z1	X2	Y2	Z2	X3	Y3	Z3	X4	Y4	Z4	X5	Y5	Z5	X6	Y6	Z6	X7	Y7	Z7	X8	Y8	Z8	X9	Y9	Z9	X10	Y10	Z10	X11	Y11	Z11	X12	Y12	Z12	X13	Y13	Z13	X14	Y14	Z14	X15	Y15	Z15	X16	Y16	Z16	X17	Y17	Z17	X18	Y18	Z18	X19	Y19	Z19	X20	Y20	Z20	X21	Y21	Z21	X22	Y22	Z22	X23	Y23	Z23	X24	Y24	Z24	X25	Y25	Z25	X26	Y26	Z26	X27	Y27	Z27	X28	Y28	Z28	X29	Y29	Z29	X30	Y30	Z30	X31	Y31	Z31	X32	Y32	Z32	X33	Y33	Z33	X34	Y34	Z34	X35	Y35	Z35	X36	Y36	Z36	X37	Y37	Z37	X38	Y38	Z38	X39	Y39	Z39	X40	Y40	Z40	X41	Y41	Z41
																																																																																																																												
174	5.777	306.36972	1567.97287	2314.92691	136.07644	1552.3378	2343.70377	315.30922	1534.30206	2192.27341	98.902	1533.71567	2249.89243	291.57986	1291.84799	2306.59103	156.15829	1290.91949	2312.47467	287.55611	1330.4982	2181.95908	136.33532	1331.20895	2195.3096	215.66288	1159.81857	2136.97998	227.10054	1244.56383	2363.3551	229.37622	1154.82338	2423.58932	387.38106	1301.26404	2245.72418	432.08981	1058.93105	2238.89297	444.23248	980.50781	2274.21036	435.64873	908.89435	2256.84402	399.1193	761.53946	2341.65802	471.18904	767.45422	2334.10172	453.92891	702.62413	2373.99796	59.73356	1308.92166	2266.19583	6.16369	1111.53053	2204.65439	-32.68496	991.40327	2247.53235	-42.06092	895.77499	2263.37296	14.67645	780.14854	2363.55133	-60.47303	770.76996	2355.52063	-49.76709	738.47099	2392.30957	347.35546	907.08931	2357.03735	82.88303	911.24245	2370.22598	284.0486	965.54085	2187.29248	120.38968	981.85669	2193.81897	356.30741	599.65366	2267.73438	372.65579	464.11224	2348.7326	327.35538	293.99757	2260.89172	352.24747	240.99688	2102.73621	293.75008	253.0447	2032.86652	325.52204	78.39942	2109.04312	87.51131	617.01286	2250.4158	121.14439	465.72899	2371.82114	148.14818	294.39232	2368.8414	159.43692	97.04743	2322.81662	212.7207	50.78259	2256.83792	190.49891	30.47674	2454.92249
175	5.81	302.68255	1569.31244	2340.32013	133.04792	1552.54639	2370.7576	311.07096	1537.27936	2217.53174	95.16912	1534.78165	2276.92108	289.7817	1293.28583	2328.60397	154.23866	1292.27646	2336.39725	282.85751	1332.52899	2203.60138	132.44692	1333.29865	2219.8999	211.17744	1162.22435	2159.35211	226.01437	1245.26024	2385.36591	229.2905	1155.43015	2445.04425	384.42383	1303.43109	2265.77118	429.04133	1062.21054	2249.78226	442.22092	982.22778	2282.27585	432.645	910.75371	2263.51563	396.88789	762.05856	2346.77887	468.51208	767.35939	2337.0813	452.61181	702.72476	2376.77658	57.3168	1310.58289	2292.03568	0.8043	1111.75636	2235.55176	-37.52742	993.04031	2282.39792	-46.39731	897.78778	2303.05756	14.46451	787.34116	2407.39624	-61.12426	777.48474	2402.27707	-49.19439	747.96486	2440.27069	344.73923	910.01114	2382.46262	80.17632	912.4733	2391.50116	284.19577	966.58104	2210.96771	119.60299	982.96768	2214.59747	355.63095	601.20567	2311.47903	369.21295	471.26602	2401.28052	324.32472	297.51125	2323.88336	352.34577	235.53719	2168.53027	294.58218	241.50709	2097.46185	329.27631	76.69328	2190.112	88.81357	619.80621	2265.90652	119.68642	465.29404	2383.64349	147.51637	293.71151	2376.1467	159.38787	97.97792	2324.95636	213.01903	52.71229	2258.14667	189.81953	30.40462	2455.22125
176	5.843	299.13288	1570.26779	2364.73557	130.15429	1552.60025	2396.65283	307.12133	1540.42389	2241.79825	91.74793	1536.17355	2302.77008	287.77407	1295.56061	2349.87167	152.04123	1294.06281	2358.64944	279.20347	1334.86465	2225.33966	129.21898	1335.14008	2242.48718	208.38318	1164.45778	2181.15448	224.23876	1246.85806	2406.31073	228.17141	1157.1093	2465.62302	381.75049	1306.19019	2285.51208	426.37531	1066.85226	2260.44525	440.67547	985.4007	2289.83826	430.18555	913.75046	2269.71603	393.36563	767.22382	2357.5885	465.42774	768.70064	2340.89813	450.79784	705.06668	2381.25275	54.92057	1312.22229	2314.8584	-2.48626	1111.9323	2263.89267	-40.45208	994.84055	2314.44962	-48.54674	900.15869	2339.62952	13.58809	794.01352	2446.8959	-61.02288	784.79347	2445.27512	-48.22765	757.73819	2484.97864	342.37801	912.70187	2406.93359	77.74284	913.48511	2410.98038	284.93631	967.86453	2233.98636	120.21744	984.00826	2234.81323	355.28355	605.0705	2348.98819	365.11642	479.39175	2448.02277	321.56845	299.1292	2384.03046	351.007	222.88174	2235.87311	292.27879	219.77713	2163.69385	333.95535	69.76436	2274.64722	89.39752	621.98368	2281.34735	118.94794	465.20779	2396.03897	147.2051	293.13196	2383.97751	159.85134	99.07217	2327.23297	213.5561	55.25888	2259.68231	189.28267	30.21873	2455.93857
177	5.877	296.36391	1571.15952	2388.70621	127.66552	1552.42371	2421.26648	303.72234	1543.08105	2265.26047	88.70625	1537.0993	2327.24136	285.88043	1297.65503	2370.93719	149.82037	1295.49377	2379.81445	276.65152	1336.8605	2246.65253	126.96196	1336.44424	2263.81714	206.68861	1166.28204	2202.05551	222.06274	1248.88359	2427.18582	226.35534	1158.97224	2486.25854	379.63852	1308.70605	2305.95413	424.39392	1071.80573	2271.94061	439.43554	989.08104	2297.81525	428.10654	917.04735	2276.78207	391.36532	770.40604	2364.39819	462.2702	770.82115	2346.56845	448.09803	708.11554	2387.66373	52.72113	1313.20129	2335.97107	-4.29233	1111.09108	2289.53445	-42.01521	995.64606	2343.55682	-49.35918	901.90659	2373.19473	14.59515	801.41609	2485.17288	-59.49702	792.03354	2485.72784	-46.71723	766.70685	2525.41122	340.34142	915.50079	2430.74081	75.65136	914.23965	2429.46304	286.27136	969.32732	2255.75806	121.46451	984.77905	2254.12338	354.77039	609.01634	2383.75366	360.48161	487.14462	2488.07571	318.95514	299.49234	2441.51093	349.15703	206.13817	2303.69614	289.75121	193.36828	2230.84839	338.49026	63.23993	2363.50647	89.89653	623.5997	2296.49887	118.51909	465.10891	2408.60931	147.10344	292.38329	2391.67786	160.31166	100.20512	2329.41864	214.70814	57.81488	2261.66687	188.60876	29.93369	2456.23932
